<svg width="48.000000" height="48.000000" viewBox="0 0 48 48" fill="none" xmlns="http://www.w3.org/2000/svg" xmlns:xlink="http://www.w3.org/1999/xlink">
	<desc>
			Created with Pixso.
	</desc>
	<defs>
		<clipPath id="clip3_9417">
			<rect id="iphonex_119956 5" width="48.000000" height="48.000000" fill="white" fill-opacity="0"/>
		</clipPath>
	</defs>
	<rect id="iphonex_119956 5" width="48.000000" height="48.000000" fill="#FFFFFF" fill-opacity="0"/>
	<g clip-path="url(#clip3_9417)">
		<path id="Vector" d="M17 6C15.3433 6 14 7.34315 14 9L14 39C14 40.6569 15.3433 42 17 42L31.0229 42C32.6797 42 34.0229 40.6569 34.0229 39L34.0229 9C34.0229 7.34315 32.6797 6 31.0229 6L31 6C30.4478 6 30 6.44772 30 7C30 8.65685 28.6567 10 27 10L21 10C19.3433 10 18 8.65685 18 7C18 6.44772 17.5522 6 17 6ZM19.8291 6C19.9399 6.31278 20 6.64936 20 7C20 7.55228 20.4478 8 21 8L27 8C27.5522 8 28 7.55228 28 7C28 6.64936 28.0601 6.31278 28.1709 6L19.8291 6ZM12 9C12 6.23858 14.2388 4 17 4L31.0229 4C33.7842 4 36.0229 6.23858 36.0229 9L36.0229 39C36.0229 41.7614 33.7842 44 31.0229 44L17 44C14.2388 44 12 41.7614 12 39L12 9Z" fill="#CCCCCC" fill-opacity="1.000000" fill-rule="nonzero"/>
		<rect id="Rectangle 12" x="15.928711" y="7.357147" rx="3.000000" width="16.142857" height="32.428570" stroke="#CCCCCC" stroke-opacity="1.000000" stroke-width="1.000000" stroke-dasharray="2 2"/>
	</g>
</svg>
