<svg width="48.000000" height="48.000000" viewBox="0 0 48 48" fill="none" xmlns="http://www.w3.org/2000/svg" xmlns:xlink="http://www.w3.org/1999/xlink">
	<desc>
			Created with Pixso.
	</desc>
	<defs>
		<clipPath id="clip3_9414">
			<rect id="airpods_110489 3" width="48.000000" height="48.000000" fill="white" fill-opacity="0"/>
		</clipPath>
	</defs>
	<rect id="airpods_110489 3" width="48.000000" height="48.000000" fill="#FFFFFF" fill-opacity="0"/>
	<g clip-path="url(#clip3_9414)">
		<path id="Vector" d="M5.14258 8.62393L5.14258 17.9988C6.76807 20.1012 9.45166 21.4783 12.4937 21.4783C13.9653 21.4783 15.3506 21.1499 16.5771 20.5798L16.5771 39.4472L21.478 39.4472L21.478 13.3106C21.478 8.80035 17.4561 5.14285 12.4937 5.14285C9.45166 5.14285 6.76807 6.51993 5.14258 8.62393Z" stroke="#0071E4" stroke-opacity="1.000000" stroke-width="2.100000" stroke-linejoin="round"/>
		<path id="Vector" d="M14.1274 18.2112C15.48 18.2112 16.5776 19.3089 16.5776 20.6615" stroke="#0071E4" stroke-opacity="1.000000" stroke-width="2.100000" stroke-linejoin="round" stroke-linecap="round"/>
		<path id="Vector" d="M18.2109 42.7143C17.3096 42.7143 16.5776 41.9825 16.5776 41.0807L16.5776 39.4472L21.478 39.4472L21.478 41.0807C21.478 41.9825 20.7466 42.7143 19.8447 42.7143L18.2109 42.7143Z" stroke="#0071E4" stroke-opacity="1.000000" stroke-width="2.100000" stroke-linejoin="round"/>
		<path id="Vector" d="M9.63525 11.677C8.95898 11.677 8.41016 12.2259 8.41016 12.9022C8.41016 13.5784 8.95898 14.1273 9.63525 14.1273C10.3115 14.1273 10.8604 13.5784 10.8604 12.9022C10.8604 12.2259 10.3115 11.677 9.63525 11.677Z" fill="#0071E4" fill-opacity="1.000000" fill-rule="nonzero"/>
		<path id="Vector" d="M14.9409 8.91959C16.2134 9.47989 17.228 10.4633 17.772 11.6754" stroke="#0071E4" stroke-opacity="1.000000" stroke-width="2.100000" stroke-linejoin="round" stroke-linecap="round"/>
		<path id="Vector" d="M42.7144 8.62393L42.7144 17.9988C41.0889 20.1012 38.4053 21.4783 35.3633 21.4783C33.8916 21.4783 32.5063 21.1499 31.2793 20.5798L31.2793 39.4472L26.3789 39.4472L26.3789 13.3106C26.3789 8.80035 30.4009 5.14285 35.3633 5.14285C38.4053 5.14285 41.0889 6.51993 42.7144 8.62393Z" stroke="#0071E4" stroke-opacity="1.000000" stroke-width="2.100000" stroke-linejoin="round"/>
		<path id="Vector" d="M33.7295 18.2112C32.377 18.2112 31.2793 19.3089 31.2793 20.6615" stroke="#0071E4" stroke-opacity="1.000000" stroke-width="2.100000" stroke-linejoin="round" stroke-linecap="round"/>
		<path id="Vector" d="M29.646 42.7143C30.5479 42.7143 31.2793 41.9825 31.2793 41.0807L31.2793 39.4472L26.3789 39.4472L26.3789 41.0807C26.3789 41.9825 27.1108 42.7143 28.0122 42.7143L29.646 42.7143Z" stroke="#0071E4" stroke-opacity="1.000000" stroke-width="2.100000" stroke-linejoin="round"/>
		<path id="Vector" d="M32.9165 8.91959C31.644 9.47989 30.6294 10.4633 30.0854 11.6754" stroke="#0071E4" stroke-opacity="1.000000" stroke-width="2.100000" stroke-linejoin="round" stroke-linecap="round"/>
		<path id="Vector" d="M38.2222 11.677C37.5459 11.677 36.9971 12.2259 36.9971 12.9022C36.9971 13.5784 37.5459 14.1273 38.2222 14.1273C38.8984 14.1273 39.4473 13.5784 39.4473 12.9022C39.4473 12.2259 38.8984 11.677 38.2222 11.677Z" fill="#0071E4" fill-opacity="1.000000" fill-rule="nonzero"/>
	</g>
</svg>
