<svg width="40.000000" height="32.022717" viewBox="0 0 40 32.0227" fill="none" xmlns="http://www.w3.org/2000/svg" xmlns:xlink="http://www.w3.org/1999/xlink">
	<desc>
			Created with Pixso.
	</desc>
	<defs/>
	<path id="Vector" d="M5 30.0227L35 30.0227C36.6567 30.0227 38 28.6796 38 27.0227L38 5C38 3.34315 36.6567 2 35 2L5 2C3.34326 2 2 3.34315 2 5L2 27.0227C2 28.6796 3.34326 30.0227 5 30.0227ZM5 32.0227C2.23853 32.0227 0 29.7841 0 27.0227L0 5C0 2.23858 2.23853 0 5 0L35 0C37.7615 0 40 2.23858 40 5L40 27.0227C40 29.7841 37.7615 32.0227 35 32.0227L5 32.0227ZM34 18.0227C32.896 18.0227 32 17.1267 32 16.0227C32 14.9187 32.896 14.0227 34 14.0227C35.104 14.0227 36 14.9187 36 16.0227C36 17.1267 35.104 18.0227 34 18.0227ZM6 19.0227C6 19.575 5.55225 20.0227 5 20.0227C4.44775 20.0227 4 19.575 4 19.0227L4 13.0227C4 12.4704 4.44775 12.0227 5 12.0227C5.55225 12.0227 6 12.4704 6 13.0227L6 19.0227Z" fill="#CCCCCC" fill-opacity="1.000000" fill-rule="nonzero"/>
</svg>
