<svg width="40.000000" height="40.000000" viewBox="0 0 40 40" fill="none" xmlns="http://www.w3.org/2000/svg" xmlns:xlink="http://www.w3.org/1999/xlink">
	<defs/>
	<path id="Vector" d="M33.9314 29.5863C33.4202 30.7884 32.7886 31.9348 32.0464 33.0075C31.0549 34.436 30.241 35.4231 29.6169 35.9725C28.6477 36.8702 27.6064 37.3321 26.4932 37.3582C25.6956 37.3582 24.7319 37.1291 23.6094 36.6635C22.4832 36.1997 21.4495 35.9725 20.5022 35.9725C19.511 35.9725 18.4475 36.1997 17.3083 36.6635C16.1711 37.1291 15.2517 37.373 14.5483 37.3954C13.4832 37.442 12.418 36.9689 11.3564 35.9725C10.6787 35.3765 9.83154 34.3522 8.81421 32.9032C7.72485 31.3593 6.82959 29.562 6.12793 27.519C5.37671 25.3083 5 23.1702 5 21.0992C5 18.7283 5.50781 16.6815 6.5249 14.9681C7.29443 13.6224 8.39429 12.4993 9.71875 11.707C11.0249 10.9167 12.5159 10.4911 14.0388 10.474C14.8882 10.474 16.0015 10.7385 17.3804 11.26C18.7595 11.7815 19.6458 12.0459 20.0315 12.0459C20.3232 12.0459 21.3035 11.7349 22.9724 11.1184C24.5474 10.5467 25.8765 10.3102 26.9658 10.4033C29.9197 10.6435 32.137 11.8168 33.6121 13.9326C30.9719 15.5473 29.6667 17.8064 29.6926 20.7062C29.7146 22.9653 30.5288 24.8445 32.124 26.3363C32.8291 27.0171 33.6519 27.5618 34.5518 27.9436C34.356 28.5154 34.1492 29.0611 33.9314 29.5863ZM27.1614 2.70958C27.1614 4.47888 26.519 6.13272 25.2432 7.66177C23.7 9.47951 21.8352 10.5318 19.8137 10.366C19.7874 10.1435 19.7744 9.91962 19.7749 9.69554C19.7749 7.99515 20.5061 6.17743 21.8113 4.68935C22.4612 3.93692 23.2881 3.30928 24.2908 2.81015C25.2913 2.31848 26.2366 2.04655 27.1265 2C27.1504 2.23839 27.1614 2.47491 27.1614 2.70958Z" fill="#0071E4" fill-opacity="1.000000" fill-rule="nonzero"/>
</svg>
